<svg width="20" height="19" viewBox="0 0 20 19" fill="none" xmlns="http://www.w3.org/2000/svg">
<path d="M5.83317 17.4167H3.33317C2.89114 17.4167 2.46722 17.2498 2.15466 16.9529C1.8421 16.656 1.6665 16.2533 1.6665 15.8333V10.2917C1.6665 9.87174 1.8421 9.46901 2.15466 9.17208C2.46722 8.87515 2.89114 8.70833 3.33317 8.70833H5.83317M11.6665 7.125V3.95833C11.6665 3.32844 11.4031 2.72435 10.9343 2.27895C10.4654 1.83355 9.82954 1.58333 9.1665 1.58333L5.83317 8.70833V17.4167H15.2332C15.6351 17.421 16.0252 17.2872 16.3314 17.0398C16.6377 16.7925 16.8396 16.4484 16.8998 16.0708L18.0498 8.94583C18.0861 8.71891 18.07 8.4872 18.0026 8.26678C17.9353 8.04636 17.8183 7.84248 17.6597 7.66928C17.5012 7.49608 17.3049 7.35769 17.0845 7.26371C16.8641 7.16973 16.6248 7.1224 16.3832 7.125H11.6665Z" stroke="#072D4B" stroke-width="2" stroke-linecap="round" stroke-linejoin="round"/>
</svg>
