<svg width="19" height="19" viewBox="0 0 19 19" fill="none" xmlns="http://www.w3.org/2000/svg">
<path d="M13.4582 1.58334H15.572C16.02 1.57541 16.4554 1.73228 16.7954 2.02415C17.1355 2.31603 17.3565 2.72259 17.4166 3.16667V8.70834C17.3565 9.15241 17.1355 9.55898 16.7954 9.85085C16.4554 10.1427 16.02 10.2996 15.572 10.2917H13.4582M7.91657 11.875V15.0417C7.91657 15.6716 8.16679 16.2757 8.61219 16.721C9.05759 17.1664 9.66168 17.4167 10.2916 17.4167L13.4582 10.2917V1.58334H4.52824C4.14639 1.57902 3.77585 1.71285 3.48489 1.96016C3.19393 2.20748 3.00216 2.55162 2.9449 2.92917L1.8524 10.0542C1.81796 10.2811 1.83326 10.5128 1.89726 10.7332C1.96125 10.9536 2.0724 11.1575 2.22301 11.3307C2.37362 11.5039 2.56009 11.6423 2.76949 11.7363C2.97889 11.8303 3.20623 11.8776 3.43574 11.875H7.91657Z" stroke="#072D4B" stroke-width="2" stroke-linecap="round" stroke-linejoin="round"/>
</svg>
